<?xml version="1.0" encoding="UTF-8"?>
<svg width="93px" height="93px" viewBox="0 0 93 93" version="1.1" xmlns="http://www.w3.org/2000/svg" xmlns:xlink="http://www.w3.org/1999/xlink">
    <title>vehicle image - placeholder</title>
    <g id="Symbols" stroke="none" stroke-width="1" fill="none" fill-rule="evenodd">
        <g id="Group">
            <rect id="Rectangle-Copy" fill="#D8D8D8" x="0" y="0" width="93" height="93" rx="5"></rect>
            <path d="M23.3017578,69.6435547 C25.1738281,69.6435547 26.6240234,68.1933594 26.6240234,66.3476562 L26.6240234,62.1025391 C32.1611328,62.4716797 40.2294922,62.7089844 46.7158203,62.7089844 C53.2021484,62.7089844 61.2705078,62.4716797 66.8076172,62.1025391 L66.8076172,66.3476562 C66.8076172,68.1933594 68.2578125,69.6435547 70.15625,69.6435547 L73.109375,69.6435547 C74.9814453,69.6435547 76.4316406,68.1933594 76.4316406,66.3476562 L76.4316406,51.8193359 C76.4316406,47.5478516 75.6142578,45.1748047 73.2939453,42.1689453 L71.1318359,39.4267578 C70.2353516,34.9443359 68.5742188,30.2246094 67.7041016,28.3789062 C66.359375,25.5048828 63.7226562,23.8173828 60.3740234,23.3691406 C58.6991078,23.1372292 53.473488,23.006047 47.1581616,23 L46.7158203,23 C40.203125,23 34.7978516,23.1582031 33.0839844,23.3691406 C29.7089844,23.7646484 27.0722656,25.5048828 25.7275391,28.3789062 C24.8837891,30.2246094 23.2226562,34.9443359 22.2998047,39.4267578 L20.1640625,42.1689453 C17.84375,45.1748047 17,47.5478516 17,51.8193359 L17,66.3476562 C17,68.1933594 18.4501953,69.6435547 20.3222656,69.6435547 L23.3017578,69.6435547 Z M64.7246094,38.5830078 C60.7781292,38.3250679 55.9989519,38.0923613 47.3014898,38.0823655 L46.7158203,38.0820313 C37.6455078,38.0820313 32.7412109,38.3193359 28.7070313,38.5830078 C27.7050781,38.6357422 27.3095703,38.2402344 27.5205078,37.2646484 C28.1005859,34.6279297 29.2871094,31.1474609 30.078125,29.75 C30.7636719,28.5371094 31.5283203,28.0097656 32.9521484,27.7988281 C34.7714844,27.5615234 39.0429688,27.4033203 46.7158203,27.4033203 C54.4150391,27.4033203 58.6601562,27.5087891 60.5058594,27.7988281 C61.9296875,28.0097656 62.6679688,28.5371094 63.3798828,29.75 C64.1972656,31.1210938 65.3046875,34.6279297 65.9375,37.2646484 C66.1748047,38.2402344 65.7529297,38.6357422 64.7246094,38.5830078 Z M28.6279297,55.90625 C26.3339844,55.90625 24.5673828,54.1660156 24.5673828,51.8457031 C24.5673828,49.5253906 26.3339844,47.7851562 28.6279297,47.7851562 C30.9482422,47.7851562 32.7148438,49.5253906 32.7148438,51.8457031 C32.7148438,54.1660156 30.9482422,55.90625 28.6279297,55.90625 Z M64.8037109,55.90625 C62.4833984,55.90625 60.7431641,54.1660156 60.7431641,51.8457031 C60.7431641,49.5253906 62.4833984,47.7851562 64.8037109,47.7851562 C67.1240234,47.7851562 68.8642578,49.5253906 68.8642578,51.8457031 C68.8642578,54.1660156 67.1240234,55.90625 64.8037109,55.90625 Z M53.3603516,54.9042969 L40.0712891,54.9042969 C38.3574219,54.9042969 37.1445312,53.6914062 37.1445312,51.9775391 C37.1445312,50.2373047 38.3574219,49.0244141 40.0712891,49.0244141 L53.3603516,49.0244141 C55.1005859,49.0244141 56.3134766,50.2373047 56.3134766,51.9775391 C56.3134766,53.6914062 55.1005859,54.9042969 53.3603516,54.9042969 Z" id="􀙙" fill="#000000" fill-rule="nonzero" opacity="0.358308338"></path>
        </g>
    </g>
</svg>